<svg version="1.1" id="Layer_1" xmlns="http://www.w3.org/2000/svg" xmlns:xlink="http://www.w3.org/1999/xlink" x="0px" y="0px"
	 width="100%" viewBox="0 0 496 496" enable-background="new 0 0 496 496" xml:space="preserve">
<path fill="#000000" opacity="1.000000" stroke="none" 
	d="
M409.800110,334.416473 
	C415.079803,336.057251 419.782410,336.568817 424.833099,333.666412 
	C431.142853,330.040497 437.694580,331.358521 443.841614,334.917694 
	C449.849792,338.396515 455.254059,343.014404 462.201782,344.393127 
	C462.201782,345.014038 462.320221,345.534882 462.184967,345.612305 
	C449.859467,352.664459 430.727936,354.901306 421.541992,340.344147 
	C419.478210,337.073669 415.948181,337.439606 411.163513,337.443726 
	C418.870117,342.066406 421.258789,349.243591 425.438721,355.102509 
	C426.555573,356.668030 426.561768,358.244904 425.455597,359.716400 
	C424.601837,360.852112 423.371002,361.349548 421.910400,360.798920 
	C420.071228,360.105591 419.514587,358.701050 419.566040,356.842987 
	C419.794373,348.599670 415.229370,342.150452 406.849182,339.042023 
	C406.101868,341.171356 407.450623,342.862457 407.985626,344.640717 
	C411.818207,357.378723 414.841522,370.115875 408.717743,383.036926 
	C407.936829,384.684723 408.638794,386.284363 408.766663,387.924957 
	C409.000397,390.924500 407.716858,393.343079 404.659729,393.868164 
	C401.634277,394.387848 399.567078,392.382141 398.522217,389.769653 
	C397.403503,386.972504 398.648224,384.727051 401.430603,383.850220 
	C405.935303,382.430603 406.589905,378.532471 407.572021,374.889862 
	C410.307800,364.743256 407.149597,355.234711 404.191833,345.058075 
	C401.741669,349.037384 402.497559,353.159698 401.410278,356.836273 
	C399.687347,362.662323 397.658722,368.256836 393.207947,372.583038 
	C391.782990,373.968109 391.396881,375.663849 390.807739,377.392151 
	C389.887512,380.091766 387.744171,380.758789 385.176910,380.169922 
	C382.903625,379.648438 381.799835,377.983582 381.963593,375.754669 
	C382.144318,373.295776 383.550079,371.750061 386.165527,371.713654 
	C391.290771,371.642273 393.096527,367.569855 395.111084,364.038940 
	C398.317108,358.419678 399.394073,352.209106 399.152771,344.729065 
	C371.571747,383.523926 335.173187,407.644592 288.761505,415.186829 
	C242.550751,422.696442 200.337387,411.899261 161.749252,384.749786 
	C163.502609,392.118225 160.676147,398.642181 159.775742,405.394989 
	C159.524628,407.278320 158.950546,408.620758 157.054688,409.037018 
	C155.405197,409.399170 154.067322,408.743286 153.298355,407.246124 
	C152.508926,405.709137 153.001648,404.393341 154.190811,403.200409 
	C160.560684,396.810181 161.374634,390.125946 156.846436,381.221771 
	C154.807816,381.955170 154.684067,384.001831 154.013199,385.553528 
	C148.557709,398.172241 141.955963,409.783508 128.516068,415.623474 
	C127.026779,416.270630 126.610222,417.879395 125.624146,418.974152 
	C123.621521,421.197510 121.137581,421.998322 118.460571,420.418243 
	C116.221161,419.096405 115.313423,416.896881 116.341965,414.394409 
	C117.550735,411.453430 119.969086,410.451355 122.875816,411.582123 
	C125.476456,412.593811 127.767708,412.231689 130.009781,410.894012 
	C139.882553,405.003815 145.763962,396.079437 149.755600,385.373047 
	C147.048050,384.855011 146.188751,386.849518 144.910324,387.924469 
	C138.779999,393.078949 132.063553,396.881531 123.864395,397.290924 
	C122.030800,397.382446 120.798439,398.374451 119.412758,399.283295 
	C117.487740,400.545898 115.554916,400.323395 113.923958,398.776245 
	C112.239281,397.178131 112.222244,395.040649 113.287010,393.256500 
	C114.410370,391.374176 116.763535,390.508606 118.533669,391.641327 
	C126.099136,396.482513 132.149551,392.448151 138.333572,388.728363 
	C142.822174,386.028412 146.325333,382.224640 149.870224,378.461731 
	C151.153885,377.099182 151.760864,375.870209 150.246521,374.165588 
	C146.618408,370.081573 143.118713,365.883453 138.649063,362.336182 
	C137.663376,368.852600 136.873810,374.492218 135.406677,380.058838 
	C134.889420,382.021393 135.237808,384.166840 132.508759,384.484100 
	C131.092468,384.648773 129.741745,384.274689 129.145294,382.880981 
	C128.221100,380.721375 129.100677,379.231201 130.924149,377.775421 
	C135.925552,373.782562 136.469879,363.363678 132.038971,356.123047 
	C128.967178,361.614227 127.194435,367.530334 123.950737,372.741394 
	C119.191345,380.387451 113.645317,387.092010 105.102242,390.690796 
	C103.431076,391.394806 102.663017,392.739746 101.770401,394.192352 
	C100.100792,396.909363 97.641411,398.069977 94.537285,396.547028 
	C91.603996,395.107880 91.130524,392.418854 92.003540,389.717560 
	C93.079422,386.388489 96.066956,385.533356 98.901176,386.746155 
	C102.660324,388.354767 105.488586,386.811340 108.137375,384.855560 
	C118.338814,377.323029 124.004929,366.778687 127.832771,355.029724 
	C125.988304,353.472137 124.417336,354.456024 122.900093,354.789703 
	C112.623192,357.050018 102.455933,357.706635 92.678505,352.754944 
	C90.761497,351.784088 88.702682,352.617828 86.782715,352.085754 
	C84.517761,351.458038 83.634048,349.849304 83.687195,347.570038 
	C83.735352,345.504974 84.449066,343.996307 86.665100,343.603516 
	C88.716675,343.239899 91.243668,343.030701 91.812538,345.354462 
	C93.537277,352.399750 99.584908,353.006989 104.713486,353.389923 
	C112.235672,353.951599 119.859291,352.924194 128.376648,349.711578 
	C117.577286,336.878204 113.352318,321.011658 103.005241,308.156281 
	C99.099007,311.634979 95.502197,314.321747 95.082962,319.927887 
	C94.523079,327.414795 90.357048,332.872864 83.595406,336.351471 
	C77.140488,339.672241 70.003906,341.777924 64.665550,347.544067 
	C61.885872,332.842346 75.248314,315.480072 89.346802,314.669647 
	C95.789474,314.299316 101.076332,307.264191 100.903107,300.742218 
	C100.668564,291.911774 96.960693,283.995850 96.071495,277.206665 
	C91.868973,280.693268 87.137550,284.554443 82.491814,288.516052 
	C81.258018,289.568176 81.373131,291.209320 81.321762,292.722656 
	C80.816269,307.614105 73.041275,317.195099 59.474880,322.495972 
	C52.654861,325.160828 45.702351,327.491791 39.348038,331.253235 
	C36.437126,332.976318 34.208561,335.449554 31.712540,337.648376 
	C29.966259,336.766663 30.602896,335.251099 30.832359,334.113983 
	C32.889290,323.920471 36.141956,314.136139 41.918751,305.407928 
	C49.897614,293.352600 60.962261,287.189209 75.691429,288.501770 
	C77.437576,288.657379 79.039879,288.420441 80.301926,287.118958 
	C84.805382,282.474670 89.831085,278.290131 93.636406,272.033783 
	C87.676956,273.363983 82.655632,274.019653 78.771858,279.357178 
	C74.645996,285.027374 67.811760,286.485870 60.769852,285.792297 
	C53.891399,285.114838 47.266376,281.804596 40.357777,284.248413 
	C39.043873,282.264954 40.291866,281.273132 41.135857,280.450317 
	C47.177589,274.560181 53.823338,269.651489 62.366142,268.005402 
	C67.131828,267.087158 71.981888,267.414764 75.862976,270.150787 
	C81.964943,274.452454 87.126305,271.709076 93.617249,268.955597 
	C86.904320,264.931244 80.916115,261.252838 74.808571,257.784637 
	C73.984909,257.316895 72.553795,257.855042 71.416061,258.013977 
	C57.242142,259.993896 46.347801,254.831772 38.509098,242.961166 
	C35.480335,238.374542 32.465153,233.777847 29.361052,229.242371 
	C26.267412,224.722214 22.304604,221.017014 16.805937,217.395020 
	C23.902891,216.093903 29.728531,216.717453 35.562721,217.670288 
	C44.185360,219.078506 52.426376,221.512970 59.764763,226.451233 
	C68.332809,232.216965 72.756172,240.500061 74.273285,250.500916 
	C74.523552,252.150681 74.368744,253.857452 75.937119,254.991440 
	C81.187134,258.787354 86.680550,262.167542 92.655098,265.227448 
	C92.152039,259.571777 89.932304,255.961121 85.588745,253.551392 
	C78.414246,249.571121 74.871437,243.598740 74.557648,235.308350 
	C74.303040,228.581375 73.965683,221.801331 71.520462,214.214493 
	C81.300743,218.988739 87.723877,225.520233 92.579567,234.936234 
	C93.886551,219.752625 96.145157,205.576767 100.545845,191.805161 
	C102.729607,184.971252 104.992966,178.153854 108.371681,171.833664 
	C110.380989,168.075104 109.419128,166.096100 105.875008,164.416046 
	C98.340256,160.844238 90.902962,157.077621 82.221260,157.306274 
	C77.820999,157.422165 73.574547,157.460205 71.139374,162.243118 
	C70.141235,164.203568 67.953232,164.564163 65.853165,163.743179 
	C63.729168,162.912857 62.754585,161.199783 63.006809,158.991974 
	C63.258987,156.784653 64.737251,154.720139 66.818184,155.071472 
	C74.259445,156.327789 81.569023,152.575836 88.986420,154.814774 
	C93.224625,156.094070 97.534622,157.135544 102.083237,157.763443 
	C94.027077,149.324890 85.312866,142.038361 73.141251,140.375717 
	C70.668892,140.037994 69.197426,141.662781 67.528671,143.074707 
	C65.061928,145.161789 62.489281,144.681839 60.349365,142.582611 
	C58.337803,140.609314 58.082214,138.062668 59.614685,135.718506 
	C61.303864,133.134613 64.478333,132.103821 66.547691,133.920853 
	C69.831825,136.804535 73.600929,136.304337 77.222282,137.156815 
	C88.150276,139.729279 96.663002,146.331543 104.533859,153.940659 
	C106.060333,155.416367 107.168533,157.402176 109.377533,158.104935 
	C111.789978,152.112167 106.868187,141.175522 100.821854,139.463593 
	C98.674126,138.855484 97.600693,137.952820 97.733841,135.743805 
	C97.822968,134.265350 98.446205,133.176605 99.999527,132.878525 
	C102.122215,132.471191 103.590515,133.288818 104.240746,135.369003 
	C104.870132,137.382507 106.120216,138.847229 107.965813,139.920349 
	C114.206413,136.831787 120.853386,137.537949 127.417503,137.801331 
	C123.737228,131.977173 118.879738,130.175018 112.037758,132.092377 
	C110.542885,132.511307 109.037636,132.536240 107.908997,131.189651 
	C106.918602,130.008011 106.937729,128.710342 107.823830,127.516846 
	C108.958519,125.988503 110.459496,125.689301 112.255569,126.355995 
	C117.823700,128.422852 123.890762,129.308365 128.549713,133.508041 
	C129.495850,134.360901 130.912735,135.224121 132.059341,133.766068 
	C133.355331,132.118073 132.252579,131.035233 130.849167,130.159286 
	C129.521530,129.330643 127.991570,128.231140 129.375458,126.662903 
	C131.093506,124.716042 132.269562,126.521469 133.232605,127.886429 
	C134.880157,130.221573 136.373245,129.661636 138.067917,127.879402 
	C153.407211,111.747498 171.230453,99.050606 191.547180,89.999611 
	C210.544861,81.536263 230.396317,76.515015 251.295425,75.602974 
	C278.523529,74.414742 304.782806,78.573608 329.535492,90.020454 
	C342.938446,96.218636 356.073761,103.151878 366.545166,114.126915 
	C369.931335,117.675911 374.155731,120.425140 377.889954,123.453682 
	C380.315918,122.640556 380.507690,120.681549 380.904999,118.952187 
	C382.181732,113.394646 386.510895,109.583794 388.988586,104.710037 
	C389.742950,103.226158 391.525665,103.255875 393.043335,103.639816 
	C394.526855,104.015121 395.217804,105.149574 395.222565,106.616982 
	C395.228149,108.341232 394.156769,109.281647 392.650452,109.925522 
	C385.004364,113.193916 381.368683,120.260773 383.291901,128.156372 
	C385.587219,128.456451 386.267242,126.397812 387.482910,125.196983 
	C394.765778,118.003334 402.414642,111.391731 412.572815,108.509377 
	C417.369873,107.148224 422.782898,108.345711 427.007538,104.257706 
	C428.573059,102.742851 431.197998,104.239441 432.548462,106.200737 
	C433.888062,108.146263 433.944733,110.427246 432.737610,112.350822 
	C431.327942,114.597206 428.494812,115.484352 426.573792,114.157089 
	C417.367310,107.796242 410.145844,113.599831 402.754517,117.738487 
	C398.280212,120.243820 394.267700,123.519287 390.559113,128.615784 
	C395.632446,127.398903 399.817444,126.369591 404.015137,125.394882 
	C408.979309,124.242188 413.953949,124.157669 418.784424,125.908607 
	C420.682434,126.596596 422.337830,126.094490 424.134460,125.814888 
	C426.528046,125.442398 428.554382,126.213387 429.132172,128.791336 
	C429.571960,130.753479 429.710175,132.986359 427.413605,134.008362 
	C425.129791,135.024704 422.540436,135.116562 421.213715,132.658035 
	C419.395508,129.288666 417.581146,128.720535 414.677063,131.365326 
	C412.672485,133.190903 409.891296,130.722610 407.565186,132.520309 
	C403.610413,135.576691 400.714081,139.347870 398.920990,143.921204 
	C397.693268,147.052536 399.815643,147.713394 402.322021,147.671951 
	C407.484711,147.586609 412.623749,147.396042 417.534271,149.588379 
	C418.782715,150.145737 420.113312,150.250198 420.322571,151.920380 
	C420.435547,152.822021 420.226685,153.633698 419.384094,154.030258 
	C417.810303,154.770966 416.638184,154.204239 415.424622,152.982224 
	C411.791565,149.323776 407.567810,148.723907 402.221924,150.827972 
	C409.360992,161.652451 415.627136,172.371109 420.776306,183.974487 
	C421.639801,175.597443 426.755341,169.398422 430.575867,162.590622 
	C431.412292,161.100220 432.620850,160.404282 434.287598,160.729187 
	C435.708130,161.006088 436.660889,161.921677 437.015411,163.339706 
	C437.433838,165.013046 436.820496,166.735458 435.356964,167.125519 
	C424.472656,170.026474 425.326996,179.313309 424.600708,188.068130 
	C426.423462,186.144012 428.196381,184.169632 430.077484,182.304352 
	C438.717194,173.737335 447.991882,166.311020 460.825531,165.293915 
	C463.190521,165.106461 465.183411,164.008560 467.177094,162.688370 
	C469.666565,161.039917 472.463684,161.213547 474.360199,163.645676 
	C476.031891,165.789536 475.958527,168.420746 474.112579,170.551727 
	C472.032654,172.952911 468.992432,173.252914 466.986115,171.192032 
	C462.896881,166.991669 458.610840,168.919968 454.528809,170.251816 
	C445.609558,173.161896 438.644897,179.046432 432.043915,186.027695 
	C434.085266,187.254623 435.450104,185.925430 436.821075,185.429459 
	C444.829315,182.532349 452.961029,181.356308 461.257874,183.897552 
	C463.202942,184.493317 464.857361,183.708511 466.650299,183.723709 
	C468.828552,183.742172 470.714996,184.259979 471.162598,186.718231 
	C471.538849,188.784592 471.341339,190.939499 469.152161,191.871887 
	C467.084869,192.752350 464.386658,192.948883 463.353943,190.656372 
	C460.934937,185.286545 455.926361,185.641968 451.823120,185.739899 
	C443.054291,185.949203 434.945221,189.113937 427.285278,193.421951 
	C424.940094,194.740891 424.482544,196.185059 425.231140,198.684647 
	C430.537262,216.401703 432.171814,234.580643 431.264801,252.963760 
	C430.346039,271.584381 425.669678,289.378723 418.351410,306.498810 
	C415.089935,314.128479 411.865967,321.774261 408.159393,330.510101 
	C414.473419,327.907532 419.923523,325.703125 425.333527,323.404236 
	C426.855225,322.757629 427.112610,321.070831 427.756287,319.747467 
	C433.791077,307.340729 443.893463,301.766998 457.484436,301.634033 
	C466.283508,301.547974 475.144379,302.734222 483.871887,300.735443 
	C486.273346,300.185455 488.613953,299.369751 491.151611,298.626404 
	C491.279358,299.161469 491.619934,299.750580 491.452271,300.005524 
	C482.398071,313.774078 471.933899,325.793365 454.794403,329.568329 
	C447.031036,331.278168 439.505981,330.651672 432.485046,326.958435 
	C429.167328,325.213257 426.224426,325.084991 423.061890,326.813446 
	C418.544250,329.282562 413.059265,330.005554 409.800110,334.416473 
M352.654114,380.228760 
	C352.090271,380.498352 351.526428,380.767975 350.289612,381.253235 
	C349.379852,381.665222 348.438110,382.018890 347.565063,382.497803 
	C331.449188,391.338165 314.014069,396.699768 296.034363,399.183167 
	C279.953278,401.404327 263.588654,401.188293 247.371216,398.373047 
	C213.782303,392.542145 185.181671,377.227783 161.047028,353.411743 
	C157.800766,350.208344 154.256195,346.918732 152.872192,342.163116 
	C159.392303,348.344452 165.430206,354.950897 172.308655,360.695282 
	C197.658539,381.865692 226.537262,394.910217 259.588928,397.455292 
	C274.635559,398.613953 289.724121,398.064819 304.696136,394.795746 
	C344.269501,386.155090 375.590820,365.269196 399.147430,332.498840 
	C402.995514,327.145660 402.757416,321.691803 399.075653,316.308563 
	C394.687225,309.892059 393.987335,303.058594 396.961121,295.908295 
	C399.679840,289.371277 403.145691,283.122681 404.093842,275.697815 
	C415.680603,286.774170 416.352814,305.678955 405.890259,316.816132 
	C403.988098,318.840912 402.743622,320.923553 404.094788,324.024933 
	C434.559631,282.034393 435.083435,207.023895 389.761871,151.875061 
	C360.254608,115.969627 321.587280,95.966217 275.221283,93.735191 
	C222.438309,91.195396 178.168610,109.567619 146.078217,153.948151 
	C145.103561,151.003143 147.607620,150.133804 146.978241,148.324097 
	C146.645599,148.542328 146.313126,148.667130 146.114334,148.904083 
	C114.744240,186.296692 103.291550,229.373291 109.643944,277.442932 
	C110.108879,280.961182 110.292786,284.831085 113.106873,287.670410 
	C117.888176,292.494629 119.313225,298.501495 119.295341,305.046661 
	C119.287224,308.016693 119.036598,310.939941 120.283234,313.878143 
	C127.447426,330.763367 136.967148,346.218323 149.541809,359.507263 
	C191.633972,403.990509 243.014236,416.537476 301.848022,403.253571 
	C311.138153,401.155975 319.537079,396.388550 328.634949,395.599976 
	C327.210297,396.452576 325.868408,397.508301 324.348663,398.127502 
	C298.775940,408.546631 272.128571,412.785828 244.642197,411.041565 
	C237.424423,410.583527 230.329895,408.238434 223.169586,406.805817 
	C213.751801,404.921600 204.694122,401.825806 195.715591,398.454315 
	C246.732635,434.120148 362.403992,404.483582 392.113068,347.970123 
	C381.922028,357.685730 372.977600,368.103241 360.736267,374.660004 
	C357.979370,376.136688 355.551514,378.227661 352.654114,380.228760 
M215.655121,84.224449 
	C185.980392,92.881805 160.791382,108.704620 139.886261,131.458984 
	C137.274307,134.301971 136.381760,136.841476 139.242279,140.323975 
	C166.737228,111.691895 199.547943,94.103897 238.832138,88.298698 
	C277.480743,82.587433 314.633850,85.375984 349.713470,103.949417 
	C308.135254,78.250801 263.763428,71.235504 215.655121,84.224449 
M159.408203,129.891373 
	C167.643707,122.839218 176.256668,116.348892 185.822769,111.139023 
	C195.248886,106.005394 204.694290,100.910698 214.303986,96.102730 
	C206.411240,98.843369 198.410110,101.360435 191.002548,105.064568 
	C150.532211,125.301689 122.768150,156.849243 107.896423,199.651718 
	C100.063728,222.195099 98.536072,245.439560 100.452538,269.006866 
	C100.879051,274.251740 103.731461,278.720917 107.046486,283.042023 
	C104.230713,264.308563 103.615074,245.756577 106.608299,227.146790 
	C109.592682,208.591980 115.132507,190.894928 124.113106,174.379623 
	C133.162918,157.737030 144.214508,142.605225 159.408203,129.891373 
M113.315987,169.761490 
	C103.366783,190.479431 96.566467,215.811310 97.465485,229.477448 
	C100.174599,214.232315 104.171265,199.385986 110.516129,185.213287 
	C116.913498,170.923355 125.032188,157.692245 134.979523,145.594955 
	C132.338791,142.494339 130.475754,142.423080 128.314926,145.367111 
	C122.791763,152.892181 117.751266,160.697769 113.315987,169.761490 
M372.895508,124.623177 
	C367.778290,120.361076 362.432709,116.421036 356.837250,112.796280 
	C341.173798,102.649429 324.123718,95.837830 306.013214,91.620049 
	C304.371429,91.237694 301.843018,89.581696 300.615601,92.757370 
	C303.723206,95.398376 307.152222,94.785912 310.574310,94.521698 
	C315.098236,94.172409 317.535248,98.400955 321.313202,99.641464 
	C339.396667,105.579224 355.271759,115.313377 369.934723,127.287392 
	C372.609833,129.471939 374.848541,132.425522 378.406311,133.776093 
	C379.745636,128.813873 375.417694,127.669998 372.895508,124.623177 
M423.787262,216.395432 
	C424.066986,216.694336 424.174957,217.482269 424.809326,216.771790 
	C424.906952,216.662415 424.949188,216.447311 424.926392,216.294632 
	C423.380890,205.941513 420.682922,195.908859 416.905151,186.134399 
	C412.431641,174.559723 406.437347,163.842392 399.294556,153.736969 
	C398.564056,152.703445 397.825317,151.091965 396.214661,152.254883 
	C394.701630,153.347336 395.719666,154.603561 396.507935,155.708038 
	C396.991821,156.386002 397.472717,157.066238 397.944916,157.752365 
	C410.159729,175.500519 419.235077,194.634949 423.787262,216.395432 
M113.015800,154.471924 
	C113.600952,155.792480 112.849731,157.496323 114.661079,159.075043 
	C118.129417,153.072449 122.591225,147.877563 125.511604,141.529602 
	C119.240570,138.178024 115.065552,141.686676 110.602150,144.531555 
	C111.348457,147.620972 112.085899,150.673676 113.015800,154.471924 
M131.718063,340.734344 
	C127.794281,334.592834 123.780342,328.502838 120.360100,321.110016 
	C122.705055,325.597473 118.875511,323.649445 117.892792,324.568298 
	C123.885422,336.640228 142.029770,359.109589 148.643082,362.635864 
	C142.831421,355.712433 136.895432,348.972656 131.718063,340.734344 
M398.536774,138.833405 
	C400.617645,134.805267 403.720703,131.655807 408.068848,128.584747 
	C402.223541,128.183899 397.908386,130.026276 393.290375,132.144470 
	C396.519043,133.363022 397.358307,134.943542 394.808167,137.281281 
	C393.480286,138.498550 393.155853,139.842972 394.638092,141.106537 
	C396.993317,143.114349 397.226501,140.426392 398.536774,138.833405 
M383.015533,137.463959 
	C384.077118,142.752197 388.682373,145.136993 391.864319,148.692627 
	C391.107330,143.267639 389.575836,138.444748 383.015533,137.463959 
M263.741058,88.402985 
	C258.998871,88.127167 254.378235,88.834587 249.924194,90.841125 
	C254.695328,90.032135 259.466461,89.223145 263.741058,88.402985 
M294.006836,89.415215 
	C291.843781,89.806030 289.680695,90.196846 287.517639,90.587654 
	C290.658173,91.156265 293.615601,91.922905 296.558167,92.229210 
	C297.467834,89.881721 295.990326,89.727806 294.006836,89.415215 
M270.474274,88.270714 
	C270.329071,88.348503 270.118408,88.393288 270.057678,88.513680 
	C270.000977,88.626114 270.071594,88.940742 270.140442,88.958733 
	C273.855316,89.929611 277.600342,90.614670 281.544434,89.510147 
	C278.042847,89.080688 274.541260,88.651230 270.474274,88.270714 
z"/>
<path fill="#000000" opacity="1.000000" stroke="none" 
	d="
M352.813171,380.132324 
	C353.773804,379.860413 354.575409,379.684967 355.517487,379.478790 
	C353.203003,383.862274 338.846649,392.444305 329.383850,395.003418 
	C335.771545,389.829559 343.982849,386.991943 350.783203,381.314758 
	C351.526428,380.767975 352.090271,380.498352 352.813171,380.132324 
z"/>
<path fill="#000000" opacity="1.000000" stroke="none" 
	d="
M238.367767,274.612610 
	C243.177444,273.512329 245.363159,270.317627 245.703766,265.778442 
	C245.951981,262.470551 245.579483,259.139923 246.381134,255.842072 
	C247.122742,252.791061 245.646851,251.886444 242.779205,252.644730 
	C237.296829,254.094421 232.705887,256.857910 229.209488,261.410400 
	C225.267807,266.542664 221.496887,271.748260 219.594955,278.201569 
	C227.668777,282.623627 233.243164,289.647736 240.192810,295.015411 
	C240.510498,295.260803 240.530380,295.891754 241.011841,297.262085 
	C231.922287,294.947998 227.902847,286.298065 220.114609,282.788208 
	C217.969421,288.613831 220.297287,294.522552 218.610779,300.321167 
	C212.497131,292.910095 217.197174,249.124161 225.119385,240.612991 
	C226.915985,245.199753 224.287552,248.844940 223.674942,252.606293 
	C223.040939,256.499023 222.029587,260.330322 221.701126,264.526733 
	C225.397568,260.078522 228.995468,255.677887 233.414337,252.095093 
	C235.818283,250.145981 237.968109,248.237671 241.814636,249.441315 
	C245.839127,250.700653 247.533142,246.603943 249.919937,243.523392 
	C252.958618,250.574905 259.500183,244.124069 263.761139,247.988876 
	C260.903931,250.440430 257.386139,249.091003 254.421997,249.990417 
	C251.862000,250.767181 250.504593,251.577957 250.036392,254.401764 
	C248.524902,263.517853 249.724716,272.676025 249.241348,281.797058 
	C249.151321,283.495697 249.965195,285.511383 247.617126,286.874847 
	C243.863815,283.660370 246.985504,278.955841 245.016006,275.088562 
	C241.850571,276.925903 238.689087,281.104248 234.929626,276.394501 
	C232.521881,273.378143 233.506699,266.974304 236.668732,264.380737 
	C238.645493,267.571381 236.057205,271.389008 238.367767,274.612610 
z"/>
<path fill="#000000" opacity="1.000000" stroke="none" 
	d="
M239.423126,192.356613 
	C242.738235,192.321304 243.623260,193.728210 242.668564,196.498520 
	C242.150253,198.002548 242.103943,199.714981 243.785675,200.399185 
	C245.699371,201.177780 246.812469,199.573242 247.824997,198.247620 
	C248.220276,197.730133 248.421143,197.066406 248.726669,196.477646 
	C249.526779,194.935944 249.910782,192.064896 252.032593,192.924652 
	C254.302429,193.844376 257.906311,193.827713 258.180542,197.706268 
	C258.283417,199.160873 258.405151,200.724319 260.207794,202.209641 
	C265.339630,196.797729 261.575073,188.292435 267.293121,181.802292 
	C268.554626,189.812973 265.090607,196.496674 266.871765,203.143814 
	C269.180969,201.617828 268.725983,196.943924 272.410645,197.067276 
	C275.586975,197.173615 273.602234,201.223648 276.072418,202.992188 
	C277.674469,200.371262 279.188171,197.702118 280.895416,195.163071 
	C282.255920,193.139618 284.046570,191.551285 286.750183,192.570450 
	C289.692078,193.679489 288.221100,195.688995 287.621338,197.529099 
	C287.233856,198.717896 287.404083,199.880203 288.507721,200.655197 
	C289.774841,201.544983 290.675476,200.632629 291.587860,199.901047 
	C292.594604,199.093796 293.484039,198.053757 295.182190,197.976685 
	C296.260132,200.803146 294.334900,201.989456 292.640900,203.167953 
	C289.881409,205.087692 287.310913,204.423187 285.027802,202.284897 
	C276.662140,208.218781 274.055695,208.464493 271.157166,203.492325 
	C267.858307,206.224014 269.438873,211.640564 265.502991,214.010910 
	C262.204071,212.309204 263.276947,208.989624 262.210632,206.056030 
	C258.194489,206.627991 255.333710,205.010498 255.000351,200.065994 
	C250.870819,205.103424 244.983551,205.803177 239.484512,202.379410 
	C237.719696,202.976379 236.768051,206.483704 234.189606,204.289825 
	C232.133072,202.540024 233.207748,200.339432 234.026352,198.302872 
	C235.041840,195.776474 236.263794,193.442444 239.423126,192.356613 
z"/>
<path fill="#000000" opacity="1.000000" stroke="none" 
	d="
M225.692322,217.938385 
	C225.429306,203.154846 220.556808,191.177322 208.159439,183.027100 
	C207.603683,182.661728 207.037796,182.297043 206.541412,181.858673 
	C204.744171,180.271545 201.706802,179.327469 202.286240,176.289917 
	C202.820236,173.490585 205.649811,172.782074 207.985764,171.994431 
	C218.250534,168.533401 228.748978,165.868515 239.613388,165.847992 
	C245.026047,165.837769 250.450668,167.191422 255.848541,168.060669 
	C257.085968,168.259949 258.456268,168.708313 259.040192,170.603851 
	C255.238220,172.416565 251.694794,169.685562 248.086533,170.045883 
	C247.311020,170.123306 246.493530,169.598999 245.676712,169.472290 
	C237.690277,168.233505 236.678711,169.051163 235.167892,177.070419 
	C232.006165,193.852417 229.586578,210.729294 228.287292,227.762741 
	C228.168442,229.320938 228.417343,231.196960 225.875763,231.815536 
	C223.151779,227.363449 226.260056,222.811340 225.692322,217.938385 
M215.477280,184.999802 
	C220.793762,189.296097 223.554031,195.358078 226.496796,201.850677 
	C228.009583,195.525864 232.085739,174.622787 231.276733,170.194733 
	C222.867508,171.555496 214.522049,173.005936 206.436920,176.907562 
	C208.759323,180.672318 212.368607,182.031998 215.477280,184.999802 
z"/>
<path fill="#000000" opacity="1.000000" stroke="none" 
	d="
M262.423462,270.032288 
	C263.620789,264.320496 262.843170,258.504547 266.736938,253.776413 
	C268.823364,260.636810 264.993469,267.465179 266.820282,274.241608 
	C269.037445,272.460785 268.840027,267.969940 272.517944,268.060364 
	C275.431183,268.131989 274.109222,271.990265 275.735352,273.618378 
	C277.624847,272.517303 278.136108,270.732483 278.599762,269.010620 
	C279.055847,267.316803 279.960083,265.989319 281.242584,264.880707 
	C282.583038,263.721985 284.345703,262.824951 285.741852,264.073578 
	C287.530243,265.673004 286.247894,267.374054 284.953186,268.802460 
	C284.202026,269.631226 282.925110,270.032837 282.776855,271.866638 
	C289.348022,273.211090 289.099854,265.965057 292.555420,263.861420 
	C296.423340,266.091431 301.373291,267.094238 299.832336,273.052643 
	C303.521912,273.372955 303.560974,269.064667 306.847656,269.353912 
	C306.580444,273.389282 304.266113,276.093262 300.786560,276.706604 
	C297.368500,277.309082 297.133942,273.630585 296.108704,270.542053 
	C293.975464,273.876007 291.949066,275.123138 287.839142,274.962616 
	C284.413452,274.828735 279.751709,274.363770 276.181152,277.670807 
	C273.803253,279.873230 272.335236,276.810333 271.239197,274.778778 
	C268.024811,277.470123 269.058502,282.454071 265.684845,285.115601 
	C262.262177,282.845642 263.208344,279.267761 262.414490,276.573090 
	C261.146576,275.859283 260.310852,276.577423 259.404358,276.908630 
	C256.129852,278.105072 253.016785,278.302795 251.401672,274.486938 
	C249.807968,270.721710 250.597855,267.301575 253.810287,264.617035 
	C254.919006,263.690521 256.299622,263.305725 257.438782,264.351105 
	C258.762238,265.565643 258.027893,266.713501 256.858276,267.663544 
	C256.473114,267.976379 256.102570,268.326324 255.798203,268.716187 
	C254.598129,270.253418 253.750427,271.977325 255.263306,273.670380 
	C257.006531,275.621185 258.636444,274.057861 260.050201,273.016357 
	C260.952942,272.351318 261.563263,271.289368 262.423462,270.032288 
z"/>
<path fill="#000000" opacity="1.000000" stroke="none" 
	d="
M318.856750,197.905304 
	C320.091553,199.825485 320.214539,200.032684 318.412964,201.102112 
	C315.030853,203.109787 313.059875,205.580139 312.947388,209.826233 
	C312.875061,212.556015 311.458710,215.304993 309.102600,217.161926 
	C307.559448,218.378113 305.733978,218.869904 304.011475,217.682755 
	C302.388824,216.564438 302.565308,214.738266 303.082153,213.125565 
	C303.481018,211.881058 304.040436,210.526047 304.939056,209.633591 
	C307.817780,206.774628 308.316803,204.204453 304.933258,201.322418 
	C303.535583,200.131866 303.573608,198.317642 304.544647,196.725327 
	C305.594666,195.003586 306.762665,193.373383 308.984222,194.231216 
	C309.991516,195.613083 309.103180,196.385742 308.681854,197.233475 
	C307.937164,198.731949 308.651764,199.764114 309.724213,200.715683 
	C310.869202,201.731598 312.046356,201.845200 313.365051,201.023300 
	C315.057465,199.968491 316.789673,198.977600 318.856750,197.905304 
z"/>
<path fill="#000000" opacity="1.000000" stroke="none" 
	d="
M304.073334,363.253876 
	C303.584076,366.380737 301.964722,367.675262 299.194855,367.079956 
	C297.342499,366.681885 296.567047,365.212891 296.458771,363.427094 
	C296.348694,361.611572 296.991730,360.141571 298.883026,359.636505 
	C301.697784,358.884888 303.213287,360.361389 304.073334,363.253876 
z"/>
<path fill="#000000" opacity="1.000000" stroke="none" 
	d="
M256.239502,371.139282 
	C255.624359,376.408020 252.449326,375.359558 249.368759,374.743469 
	C248.725677,372.377014 249.540115,370.376709 249.978531,368.048553 
	C252.703918,367.504517 255.166092,367.258606 256.239502,371.139282 
z"/>
<path fill="#000000" opacity="1.000000" stroke="none" 
	d="
M310.189941,354.530334 
	C311.124634,355.447784 311.848785,356.364258 312.316559,357.396851 
	C313.150177,359.236877 313.168427,361.060028 311.071991,362.070465 
	C308.854645,363.139221 307.237549,362.216583 306.194458,360.123413 
	C305.702393,359.135925 304.718475,358.238708 305.555664,356.903656 
	C307.851196,356.081635 307.653992,359.100861 309.365692,359.345337 
	C310.947174,357.957184 307.954102,355.946838 310.189941,354.530334 
z"/>
<path fill="#000000" opacity="1.000000" stroke="none" 
	d="
M209.882446,364.386658 
	C209.621689,361.515900 209.888504,359.224884 212.575623,358.021881 
	C214.551620,360.312866 211.187134,361.711304 212.145721,363.844147 
	C214.761139,363.988373 214.145782,360.164062 216.951218,360.083679 
	C218.003738,362.644104 216.276291,364.346008 214.662170,365.663147 
	C213.084442,366.950623 211.237976,366.670593 209.882446,364.386658 
z"/>
<path fill="#000000" opacity="1.000000" stroke="none" 
	d="
M227.448608,367.379272 
	C228.083298,363.800018 229.909866,364.008179 232.526077,365.440826 
	C231.401657,367.795807 232.785126,371.854279 228.514206,371.867981 
	C225.874847,371.876465 226.466293,369.496643 227.448608,367.379272 
z"/>
<path fill="#000000" opacity="1.000000" stroke="none" 
	d="
M239.789551,371.833496 
	C238.874619,373.908264 238.874619,373.908264 234.598236,372.792084 
	C235.167267,370.297760 234.434021,366.487274 237.803268,366.259338 
	C241.509399,366.008575 239.749680,369.460541 239.789551,371.833496 
z"/>
<path fill="#000000" opacity="1.000000" stroke="none" 
	d="
M260.520294,375.622437 
	C258.872498,368.783936 259.379425,367.816956 265.048523,368.506653 
	C260.463043,369.827850 268.172760,375.979828 260.520294,375.622437 
z"/>
<path fill="#000000" opacity="1.000000" stroke="none" 
	d="
M218.645920,366.994080 
	C218.826828,366.353973 218.891815,366.010315 219.070099,365.741882 
	C220.050827,364.265350 219.710587,361.321991 222.742432,362.082245 
	C224.348450,362.484985 225.453796,363.819183 224.591751,365.473175 
	C223.418930,367.723389 221.345459,368.735779 218.740082,368.252716 
	C218.633804,368.233002 218.632492,367.647247 218.645920,366.994080 
z"/>
<path fill="#000000" opacity="1.000000" stroke="none" 
	d="
M287.015411,365.170410 
	C286.397919,366.844177 284.132751,366.444214 283.948212,368.545837 
	C283.933228,370.731537 286.305298,369.959930 287.858551,370.849182 
	C285.928741,372.886414 284.188995,372.681671 282.598022,371.247375 
	C281.149353,369.941315 280.482422,368.078125 281.700806,366.383118 
	C282.932922,364.669006 284.578094,363.113068 287.015411,365.170410 
z"/>
<path fill="#000000" opacity="1.000000" stroke="none" 
	d="
M204.920639,361.916779 
	C202.945633,362.078186 200.832855,360.634430 202.043732,359.871857 
	C204.177399,358.528137 202.589966,354.729828 205.892578,354.878754 
	C207.492401,354.950928 208.479034,355.822632 207.719589,357.502777 
	C207.047165,358.990448 206.081909,360.345764 204.920639,361.916779 
z"/>
<path fill="#000000" opacity="1.000000" stroke="none" 
	d="
M319.486511,356.905792 
	C315.199493,358.984772 317.035187,353.685455 314.414246,353.024323 
	C313.222137,352.723602 314.972321,350.694794 316.695801,349.920319 
	C316.113586,352.998718 321.759338,352.886230 319.486511,356.905792 
z"/>
<path fill="#000000" opacity="1.000000" stroke="none" 
	d="
M298.851349,191.369858 
	C297.917694,187.841751 299.706390,185.017792 301.408020,182.140671 
	C303.321350,185.830688 301.686920,188.689743 298.851349,191.369858 
z"/>
<path fill="#000000" opacity="1.000000" stroke="none" 
	d="
M271.513855,372.484436 
	C273.489624,373.203674 273.461731,374.251953 272.098633,375.000610 
	C270.690094,375.774200 268.934631,375.684540 268.316010,373.952026 
	C267.641418,372.062866 266.832764,369.934875 268.346252,367.995728 
	C271.159668,368.526733 269.568176,371.426300 271.513855,372.484436 
z"/>
<path fill="#000000" opacity="1.000000" stroke="none" 
	d="
M276.537140,372.970154 
	C275.923309,370.794373 275.011261,368.923950 275.998077,366.903442 
	C279.092499,369.260406 279.302063,371.281067 276.537140,372.970154 
z"/>
</svg>